<?xml version="1.0" encoding="utf-8"?>
<svg viewBox="0.5 25.655 49.215 67.292" width="49.215" height="67.292" xmlns="http://www.w3.org/2000/svg" xmlns:xlink="http://www.w3.org/1999/xlink">
  <g id="g4492" transform="matrix(1, 0, 0, 1, -6.381699, -309.802246)">
    <rect ry="2.0803924" y="339.45767" x="6.8816986" height="63.291439" width="45.208172" id="rect4401" style="fill:#ffffff;fill-opacity:1;fill-rule:nonzero;stroke:#000000;stroke-width:1;stroke-miterlimit:4;stroke-dasharray:none;stroke-opacity:1"/>
    <rect style="fill:#ffffff;fill-opacity:1;fill-rule:nonzero;stroke:#000000;stroke-width:1;stroke-miterlimit:4;stroke-dasharray:none;stroke-opacity:1" id="rect4399" width="45.208172" height="63.291439" x="8.8816986" y="337.45767" ry="2.0803924"/>
    <g style="font-size:10px;font-style:normal;font-variant:normal;font-weight:normal;font-stretch:normal;text-align:center;line-height:100%;writing-mode:lr-tb;text-anchor:middle;font-family:Fortune Letters;-inkscape-font-specification:Fortune Letters" id="g4209">
      <rect ry="2.0803924" y="335.45676" x="10.888397" height="63.291439" width="45.208172" id="rect5415" style="font-size:10px;font-style:normal;font-variant:normal;font-weight:normal;font-stretch:normal;text-align:center;line-height:100%;writing-mode:lr-tb;text-anchor:middle;fill:#ffffff;fill-opacity:1;fill-rule:nonzero;stroke:#000000;stroke-width:1;stroke-linecap:round;stroke-linejoin:round;stroke-miterlimit:4;stroke-dasharray:none;stroke-opacity:1;font-family:Fortune Letters;-inkscape-font-specification:Fortune Letters"/>
      <path style="font-size:10px;font-style:normal;font-variant:normal;font-weight:normal;font-stretch:normal;text-align:center;line-height:100%;writing-mode:lr-tb;text-anchor:middle;fill:#ffffff;fill-opacity:1;fill-rule:nonzero;stroke:#000000;stroke-width:1;stroke-linecap:round;stroke-linejoin:round;stroke-miterlimit:4;stroke-dasharray:none;stroke-opacity:1;font-family:Fortune Letters;-inkscape-font-specification:Fortune Letters" d="M 12.96875,335.46875 C 11.816213,335.46875 10.875,336.37872 10.875,337.53125 L 10.875,339.40625 L 16.0625,342.875 C 15.669339,343.4568 15.389399,344.09856 15.25,344.8125 L 10.875,343.96875 L 10.875,347.75 L 15.25,346.90625 C 15.390402,347.6145 15.672089,348.26603 16.0625,348.84375 L 10.875,352.3125 L 10.875,360.21875 L 17.53125,350.3125 C 18.108461,350.69896 18.762586,350.95587 19.46875,351.09375 L 10.875,394.875 L 10.875,396.65625 C 10.875,397.80879 11.816212,398.75 12.96875,398.75 L 30.875,398.75 L 21.53125,351.09375 C 22.237413,350.95588 22.891538,350.69897 23.46875,350.3125 L 55.53125,398.09375 C 55.887988,397.72062 56.09375,397.21562 56.09375,396.65625 L 56.09375,369.71875 L 24.9375,348.84375 C 25.327909,348.26602 25.6096,347.61448 25.75,346.90625 L 56.09375,352.875 L 56.09375,338.84375 L 25.75,344.8125 C 25.610599,344.09855 25.330661,343.4568 24.9375,342.875 L 36,335.46875 L 27.46875,335.46875 L 23.5,341.4375 C 22.918203,341.04435 22.245186,340.7644 21.53125,340.625 L 22.53125,335.46875 L 18.46875,335.46875 L 19.46875,340.625 C 18.754814,340.76438 18.081797,341.04434 17.5,341.4375 L 13.53125,335.46875 L 12.96875,335.46875 z" id="rect9065"/>
      <path style="font-size:24.47032738px;font-style:normal;font-variant:normal;font-weight:normal;font-stretch:normal;text-align:center;line-height:100%;writing-mode:lr-tb;text-anchor:middle;fill:#ffffff;fill-opacity:1;stroke:#000000;stroke-width:2.44703245;stroke-linecap:round;stroke-linejoin:round;stroke-miterlimit:4;stroke-dasharray:none;stroke-opacity:1;font-family:Fortune Letters;-inkscape-font-specification:Fortune Letters" id="path8279" d="M 67.142858,465.53183 A 13.080358,13.080358 0 1 1 40.982142,465.53183 A 13.080358,13.080358 0 1 1 67.142858,465.53183 z" transform="matrix(0.4086582,0,0,0.4086582,-1.5930914,155.61473)"/>
      <path style="font-size:10px;font-style:normal;font-variant:normal;font-weight:normal;font-stretch:normal;text-align:center;line-height:100%;writing-mode:lr-tb;text-anchor:middle;fill:#ffffff;fill-opacity:1;fill-rule:evenodd;stroke:#000000;stroke-width:1px;stroke-linecap:round;stroke-linejoin:round;stroke-opacity:1;font-family:Fortune Letters;-inkscape-font-specification:Fortune Letters" d="M 12.96875,398.75 L 15.09375,398.75 C 12.174036,387.85348 23.253614,384.7945 25.857147,394.51102 C 18.5176,387.17147 17.064827,398.75 22.40625,398.75 L 25.59375,398.75" id="path9104"/>
      <path style="font-size:10px;font-style:normal;font-variant:normal;font-weight:normal;font-stretch:normal;text-align:center;line-height:100%;writing-mode:lr-tb;text-anchor:middle;fill:#ffffff;fill-opacity:1;fill-rule:evenodd;stroke:#000000;stroke-width:1px;stroke-linecap:round;stroke-linejoin:round;stroke-opacity:1;font-family:Fortune Letters;-inkscape-font-specification:Fortune Letters" d="M 25.594 398.75 L 27.719 398.75 C 24.799 387.853 35.879 384.795 38.482 394.511 C 31.143 387.171 29.69 398.75 35.031 398.75 L 38.219 398.75" id="use3570"/>
      <path style="font-size:10px;font-style:normal;font-variant:normal;font-weight:normal;font-stretch:normal;text-align:center;line-height:100%;writing-mode:lr-tb;text-anchor:middle;fill:#ffffff;fill-opacity:1;fill-rule:evenodd;stroke:#000000;stroke-width:1px;stroke-linecap:round;stroke-linejoin:round;stroke-opacity:1;font-family:Fortune Letters;-inkscape-font-specification:Fortune Letters" d="M 38.219 398.75 L 40.344 398.75 C 37.424 387.853 48.504 384.795 51.107 394.511 C 43.768 387.171 42.315 398.75 47.656 398.75 L 50.844 398.75" id="use3572"/>
      <g id="g9081" transform="matrix(0.5338079,0,0,0.5338079,73.580971,136.30146)" style="font-size:18.73333168px;font-style:normal;font-variant:normal;font-weight:normal;font-stretch:normal;text-align:center;line-height:100%;writing-mode:lr-tb;text-anchor:middle;stroke:#000000;stroke-width:1.8733331;stroke-linecap:round;stroke-linejoin:round;stroke-miterlimit:4;stroke-dasharray:none;stroke-opacity:1;font-family:Fortune Letters;-inkscape-font-specification:Fortune Letters">
        <path style="font-size:18.73333168px;font-style:normal;font-variant:normal;font-weight:normal;font-stretch:normal;text-align:center;line-height:100%;writing-mode:lr-tb;text-anchor:middle;fill:#eeeeec;fill-opacity:1;stroke:#ffffff;stroke-width:3.74666619;stroke-linecap:round;stroke-linejoin:round;stroke-miterlimit:4;stroke-dasharray:none;stroke-opacity:1;font-family:Fortune Letters;-inkscape-font-specification:Fortune Letters" id="path4526" d="M -58.09375,390.03125 C -62.601188,391.00698 -65.999998,395.07689 -66,399.875 C -65.999997,404.6731 -62.601189,408.64927 -58.09375,409.625 C -59.792232,407.89931 -60.96875,404.22036 -60.96875,399.875 C -60.96875,395.52962 -59.792233,391.75693 -58.09375,390.03125 z" xlink:href="#path9083"/>
        <path id="path9083" style="font-size:18.73333168px;font-style:normal;font-variant:normal;font-weight:normal;font-stretch:normal;text-align:center;line-height:100%;writing-mode:lr-tb;text-anchor:middle;fill:#ffffff;fill-opacity:1;stroke:#000000;stroke-width:1.8733331;stroke-linecap:round;stroke-linejoin:round;stroke-miterlimit:4;stroke-dasharray:none;stroke-opacity:1;font-family:Fortune Letters;-inkscape-font-specification:Fortune Letters" d="M -58.107928,390.02522 C -62.615367,391.00094 -66.01105,395.06211 -66.011052,399.86022 C -66.011052,404.65833 -62.615367,408.66095 -58.107928,409.63668 C -59.806411,407.911 -60.976469,404.20558 -60.976469,399.86022 C -60.976467,395.51485 -59.806411,391.7509 -58.107928,390.02522 z"/>
      </g>
      <path style="font-size:10px;font-style:normal;font-variant:normal;font-weight:normal;font-stretch:normal;text-align:center;line-height:100%;writing-mode:lr-tb;text-anchor:middle;fill:none;fill-opacity:1;fill-rule:evenodd;stroke:#000000;stroke-width:1px;stroke-linecap:round;stroke-linejoin:round;stroke-opacity:1;font-family:Fortune Letters;-inkscape-font-specification:Fortune Letters" d="M 31.927884,396.05229 C 32.240562,397.48263 33.264064,398.75 35.03125,398.75 L 38.21875,398.75" id="path2994"/>
      <path style="font-size:10px;font-style:normal;font-variant:normal;font-weight:normal;font-stretch:normal;text-align:center;line-height:100%;writing-mode:lr-tb;text-anchor:middle;fill:none;fill-opacity:1;fill-rule:evenodd;stroke:#000000;stroke-width:1px;stroke-linecap:round;stroke-linejoin:round;stroke-opacity:1;font-family:Fortune Letters;-inkscape-font-specification:Fortune Letters" d="M 32.001335,393.87818 C 31.793965,394.54708 31.768018,395.32098 31.927884,396.05229" id="path2992"/>
      <path style="font-size:10px;font-style:normal;font-variant:normal;font-weight:normal;font-stretch:normal;text-align:center;line-height:100%;writing-mode:lr-tb;text-anchor:middle;fill:none;fill-opacity:1;fill-rule:evenodd;stroke:#000000;stroke-width:1px;stroke-linecap:round;stroke-linejoin:round;stroke-opacity:1;font-family:Fortune Letters;-inkscape-font-specification:Fortune Letters" d="M 25.59375,398.75 L 27.71875,398.75 C 26.092388,392.68033 28.809727,389.0425 31.98625,388.68995" id="use2982"/>
      <g style="font-size:10px;font-style:normal;font-variant:normal;font-weight:normal;font-stretch:normal;text-align:center;line-height:100%;writing-mode:lr-tb;text-anchor:middle;font-family:Fortune Letters;-inkscape-font-specification:Fortune Letters" id="g3886" transform="translate(0,1.149048)">
        <path style="font-size:10px;font-style:normal;font-variant:normal;font-weight:normal;font-stretch:normal;text-align:center;line-height:100%;writing-mode:lr-tb;text-anchor:middle;fill:#ffffff;fill-opacity:1;stroke:#ffffff;stroke-width:1;stroke-linecap:round;stroke-linejoin:round;stroke-miterlimit:4;stroke-dasharray:none;stroke-opacity:1;font-family:Fortune Letters;-inkscape-font-specification:Fortune Letters" id="path3890" d="M 24.375,374.34375 C 24.0545,374.28375 23.49625,374.35051 23.03125,374.4375 C 22.56625,374.5255 22.185299,374.62499 22,374.5 L 22,375.5 C 22,375.5 22.4172,375.48249 22.8125,375.5625 C 23.2077,375.6435 23.5625,375.81251 23.5625,375.8125 C 23.5625,375.8125 23.928001,375.95426 24.25,376.15625 C 24.5719,376.35825 24.843749,376.625 24.84375,376.625 C 24.84375,376.625 24.90625,376.65624 24.90625,376.65625 C 24.90625,376.65625 25.235499,376.95626 25.5,377.28125 C 25.7645,377.60625 25.96875,377.9375 25.96875,377.9375 C 25.96875,377.9375 26.153949,378.27399 26.28125,378.625 C 26.40855,378.976 26.468751,379.34374 26.46875,379.34375 C 26.46875,379.34375 26.468749,379.40626 26.46875,379.40625 C 26.46875,379.40625 26.507101,379.679 26.5,380 C 26.5101,380.458 26.375,381 26.375,381 C 26.375,381 26.2821,381.37776 26.125,381.71875 C 25.968,382.06075 25.75,382.375 25.75,382.375 C 25.75,382.375 25.71875,382.43749 25.71875,382.4375 C 25.71875,382.4375 25.4792,382.76051 25.1875,383.0625 C 24.8958,383.3645 24.562501,383.625 24.5625,383.625 C 24.5625,383.625 24.271799,383.85524 23.9375,384.03125 C 23.6032,384.20725 23.25,384.3125 23.25,384.3125 C 23.25,384.3125 23.1875,384.34376 23.1875,384.34375 C 23.1875,384.34375 23.01505,384.39149 22.78125,384.4375 C 22.54755,384.4835 22.238099,384.50601 22,384.5 C 21.6372,384.497 21.375001,384.56251 21.375,384.5625 C 21.375,384.5625 20.8236,384.64899 20.3125,384.875 C 19.8014,385.102 19.34375,385.46876 19.34375,385.46875 C 19.34375,385.46875 19.28125,385.53126 19.28125,385.53125 C 19.28125,385.53125 18.78805,385.9685 18.46875,386.5625 C 18.22875,387.0875 18.093749,387.59374 18.09375,387.59375 C 18.09375,387.59375 17.970451,388.10374 17.90625,388.59375 C 17.84205,389.08375 17.812499,389.5625 17.8125,389.5625 C 17.8125,389.5625 17.812499,389.62499 17.8125,389.625 C 17.8125,389.625 17.803101,390.18249 17.8125,390.6875 C 17.8211,391.2515 17.937501,391.78126 17.9375,391.78125 C 17.9375,391.78125 18.033449,392.30326 18.21875,392.78125 C 18.40405,393.26025 18.687499,393.68749 18.6875,393.6875 C 18.6875,393.6875 18.71875,393.78124 18.71875,393.78125 C 18.71875,393.78125 19.0084,394.26649 19.375,394.6875 C 19.7417,395.1085 20.187501,395.43751 20.1875,395.4375 C 20.1875,395.4375 20.558599,395.77326 21,396.03125 C 21.4415,396.28925 21.937499,396.46876 21.9375,396.46875 C 21.9375,396.46875 22.031251,396.5 22.03125,396.5 C 22.03125,396.5 22.361849,396.62276 22.78125,396.71875 C 23.20065,396.81375 23.698499,396.871 24,396.875 C 24.1647,396.877 24.28125,396.87501 24.28125,396.875 C 24.28125,396.875 24.8465,396.83526 25.375,396.65625 C 25.9034,396.47725 26.34375,396.15625 26.34375,396.15625 C 26.34375,396.15625 26.4375,396.09375 26.4375,396.09375 C 26.4375,396.09375 26.6439,395.97899 26.875,395.75 C 27.1062,395.522 27.348749,395.18275 27.53125,394.84375 C 27.71195,394.44775 27.812499,394.125 27.8125,394.125 C 27.8125,394.125 27.978899,393.617 28.0625,393.125 C 28.1462,392.632 28.15625,392.15624 28.15625,392.15625 C 28.15625,392.15625 28.156251,392.06251 28.15625,392.0625 C 28.15625,392.0625 28.1983,391.26049 28.1875,390.6875 C 28.1942,390.3315 28.187501,390.06249 28.1875,390.0625 C 28.1875,390.0625 28.19225,389.6045 28.21875,389.1875 C 28.24525,388.7715 28.312499,388.40624 28.3125,388.40625 C 28.3125,388.40625 28.3125,388.34376 28.3125,388.34375 C 28.3125,388.34375 28.349451,388.18076 28.40625,387.96875 C 28.46305,387.75675 28.549151,387.48624 28.65625,387.28125 C 28.73645,387.06825 28.875,386.93751 28.875,386.9375 C 28.875,386.9375 29.065449,386.69225 29.34375,386.53125 C 29.62195,386.37125 29.96875,386.28124 29.96875,386.28125 C 29.96875,386.28125 30.03125,386.28126 30.03125,386.28125 C 30.03125,386.28125 30.3395,386.19351 30.6875,386.1875 C 31.0827,386.1935 31.500001,386.31249 31.5,386.3125 C 31.5,386.3125 31.824251,386.42474 32.09375,386.59375 C 32.36325,386.76275 32.5625,387.00001 32.5625,387 C 32.5625,387 32.593749,387.03125 32.59375,387.03125 C 32.59375,387.03125 32.65955,387.12424 32.71875,387.28125 C 32.82675,387.48825 32.937598,387.77826 33,388.03125 C 33.0625,388.28325 33.09375,388.5 33.09375,388.5 C 33.09375,388.5 33.132948,388.89349 33.15625,389.3125 C 33.17945,389.7325 33.187498,390.15625 33.1875,390.15625 C 33.1875,390.15625 33.187498,390.25 33.1875,390.25 C 33.1875,390.25 33.182499,390.42249 33.1875,390.6875 C 33.1821,390.9785 33.177999,391.36651 33.1875,391.6875 C 33.197,392.0095 33.21875,392.28124 33.21875,392.28125 C 33.21875,392.28125 33.252451,392.75701 33.34375,393.25 C 33.43515,393.743 33.624999,394.25001 33.625,394.25 C 33.625,394.25 33.625001,394.31249 33.625,394.3125 C 33.625,394.3125 33.707749,394.54575 33.84375,394.84375 C 34.02975,395.18975 34.345001,395.58474 34.625,395.84375 C 34.9049,396.10275 35.125001,396.25001 35.125,396.25 C 35.125,396.25 35.622452,396.5265 36.15625,396.6875 C 36.68995,396.8495 37.25,396.87501 37.25,396.875 C 37.25,396.875 37.343749,396.875 37.34375,396.875 C 37.34375,396.875 37.351,396.875 37.375,396.875 C 37.5276,396.877 38.151601,396.85949 38.6875,396.6875 C 39.2233,396.5165 39.656251,396.21875 39.65625,396.21875 C 39.65625,396.21875 39.910501,396.04426 40.1875,395.78125 C 40.4645,395.51825 40.739851,395.15275 40.90625,394.84375 C 41.00535,394.62675 41.062499,394.46877 41.0625,394.46875 C 41.0625,394.46875 41.093751,394.37501 41.09375,394.375 C 41.09375,394.375 41.302149,393.85149 41.40625,393.3125 C 41.51045,392.7725 41.531251,392.25001 41.53125,392.25 C 41.53125,392.25 41.5539,391.97724 41.5625,391.65625 C 41.5711,391.33425 41.567401,390.94649 41.5625,390.6875 C 41.5661,390.4975 41.562499,390.37499 41.5625,390.375 C 41.5625,390.375 41.562498,390.31251 41.5625,390.3125 C 41.5625,390.3125 41.56995,389.80375 41.59375,389.34375 C 41.61745,388.88275 41.687499,388.46875 41.6875,388.46875 C 41.6875,388.46875 41.716851,388.252 41.78125,388 C 41.84565,387.748 41.967,387.46424 42.0625,387.28125 C 42.1044,387.17025 42.125002,387.09376 42.125,387.09375 C 42.125,387.09375 42.156251,387.06251 42.15625,387.0625 C 42.15625,387.0625 42.335102,386.78375 42.625,386.59375 C 42.9149,386.40475 43.281252,386.3125 43.28125,386.3125 C 43.28125,386.3125 43.6886,386.19351 44.0625,386.1875 C 44.3626,386.1925 44.656249,386.24999 44.65625,386.25 C 44.65625,386.25 44.687499,386.24999 44.6875,386.25 C 44.6875,386.25 45.066098,386.36026 45.375,386.53125 C 45.6839,386.70225 45.906251,386.9375 45.90625,386.9375 C 45.90625,386.9375 46.01785,387.08024 46.09375,387.28125 C 46.28835,387.65425 46.406252,388.21876 46.40625,388.21875 C 46.40625,388.21875 46.437502,388.28125 46.4375,388.28125 C 46.4375,388.28125 46.500349,388.70223 46.53125,389.15625 C 46.56205,389.61025 46.562499,390.09374 46.5625,390.09375 C 46.5625,390.09375 46.58745,390.35149 46.59375,390.6875 C 46.58395,391.2085 46.593749,391.90626 46.59375,391.90625 C 46.59375,391.90625 46.593749,392 46.59375,392 C 46.59375,392 46.631351,392.52449 46.71875,393.0625 C 46.80625,393.6015 46.968751,394.15626 46.96875,394.15625 C 46.96875,394.15625 47.04765,394.46975 47.21875,394.84375 C 47.38425,395.15175 47.612099,395.44626 47.8125,395.65625 C 48.0129,395.86725 48.187499,395.99999 48.1875,396 C 48.1875,396 48.281251,396.06249 48.28125,396.0625 C 48.28125,396.0625 48.768652,396.41999 49.34375,396.625 C 49.91875,396.831 50.531249,396.875 50.53125,396.875 C 50.53125,396.875 50.608301,396.877 50.75,396.875 C 51.0344,396.878 51.557451,396.83876 51.96875,396.71875 C 52.38015,396.59775 52.687499,396.40626 52.6875,396.40625 C 52.6875,396.40625 52.781252,396.37501 52.78125,396.375 C 52.78125,396.375 53.093499,396.20524 53.4375,395.90625 C 53.7815,395.60625 54.141802,395.16075 54.3125,394.84375 C 54.3908,394.67275 54.406249,394.56249 54.40625,394.5625 C 54.40625,394.5625 54.605051,394.05649 54.71875,393.5625 C 54.83235,393.0685 54.875,392.59374 54.875,392.59375 C 54.875,392.59375 54.906248,392.49999 54.90625,392.5 C 54.90625,392.5 54.923499,392.16824 54.9375,391.78125 C 54.9516,391.39425 54.942401,390.95049 54.9375,390.6875 C 54.9385,390.5365 54.937501,390.43749 54.9375,390.4375 C 54.9375,390.4375 54.935401,390.00049 54.9375,389.5625 C 54.9395,389.1235 54.968749,388.68749 54.96875,388.6875 C 54.96875,388.6875 54.968749,388.62499 54.96875,388.625 C 54.96875,388.625 54.968999,388.38974 55,388.09375 C 55.031,387.79875 55.09595,387.43049 55.15625,387.1875 C 55.21115,387.0465 55.249999,386.96876 55.25,386.96875 C 55.25,386.96875 55.372,386.64474 55.5,386.46875 C 55.5639,386.38075 55.641502,386.34976 55.6875,386.34375 C 55.7335,386.33675 55.750002,386.34375 55.75,386.34375 C 55.75,386.34375 55.78125,386.37501 55.78125,386.375 C 55.78125,386.375 55.78125,385.37599 55.78125,385.375 C 55.78125,385.375 55.687499,385.375 55.6875,385.375 C 55.6987,385.345 55.76275,384.84351 55.71875,384.6875 C 55.43615,384.7885 55.140351,385.02674 54.90625,385.34375 C 54.67225,385.65975 54.499998,386.07976 54.3125,386.59375 C 54.3125,386.59375 53.931701,386.24826 53.75,386.15625 C 53.7023,386.34825 53.703198,386.60799 53.75,386.875 C 53.8713,387.561 54.16965,388.30249 53.96875,388.5625 C 53.96875,388.5625 53.96875,388.65626 53.96875,388.65625 C 53.93935,388.64225 53.446449,388.54751 53.28125,388.5625 C 53.37665,388.9185 53.937149,389.4285 53.96875,390.4375 C 53.96875,390.4375 53.480751,390.31649 53.28125,390.3125 C 53.31245,390.4215 53.3704,390.54149 53.4375,390.6875 C 53.6979,391.2885 54.131249,392.14025 53.90625,392.40625 C 53.90625,392.40625 53.906252,392.5 53.90625,392.5 C 53.87735,392.485 53.38465,392.369 53.21875,392.375 C 53.26445,392.531 53.395599,392.73525 53.5,393.03125 C 53.6043,393.32625 53.673498,393.7355 53.5,394.1875 C 53.5,394.1875 53.120799,393.88651 52.9375,393.8125 C 52.933,393.9105 52.934401,394.04151 52.9375,394.1875 C 52.9786,394.4465 52.9401,394.78549 52.8125,395.0625 C 52.685,395.3385 52.477201,395.524 52.3125,395.5 C 52.3125,395.5 52.250001,395.53125 52.25,395.53125 C 52.2466,395.49925 52.058851,395.0735 51.96875,394.9375 C 51.89265,395.0345 51.831749,395.20326 51.65625,395.40625 C 51.48075,395.60925 51.172001,395.83299 50.75,395.875 C 50.6929,395.881 50.655051,395.87701 50.59375,395.875 C 50.59375,395.875 50.744,395.3865 50.75,395.1875 C 50.538,395.2585 50.13005,395.47726 49.71875,395.53125 C 49.30755,395.58525 48.904151,395.47825 48.84375,395.28125 C 48.84375,395.28125 48.78125,395.25001 48.78125,395.25 C 48.80805,395.234 49.165301,394.85576 49.25,394.71875 C 49.1529,394.70175 48.997099,394.7205 48.8125,394.6875 C 48.6279,394.6545 48.406749,394.58499 48.21875,394.375 C 48.09585,394.24 47.982451,394.05774 47.90625,393.84375 C 47.90625,393.84375 48.40655,393.81201 48.59375,393.75 C 48.44395,393.562 48.112901,393.26924 47.875,392.90625 C 47.637,392.54425 47.476751,392.15276 47.59375,391.96875 C 47.59375,391.96875 47.593749,391.87501 47.59375,391.875 C 47.62455,391.885 48.116752,391.93624 48.28125,391.90625 C 48.18085,391.66925 47.823652,391.30149 47.65625,390.6875 C 47.60875,390.5055 47.571399,390.29551 47.5625,390.0625 C 47.5625,390.0625 48.049402,390.21474 48.25,390.21875 C 48.1732,389.93275 47.937052,389.47649 47.71875,389.0625 C 47.50045,388.6475 47.32155,388.29774 47.40625,388.09375 C 47.40625,388.09375 47.375,387.99999 47.375,388 C 47.4067,388.006 47.908299,387.96426 48.0625,387.90625 C 47.9134,387.64225 47.491099,387.33651 47.0625,386.8125 C 46.9334,386.6585 46.808751,386.48649 46.65625,386.3125 C 46.65625,386.3125 47.120249,386.17349 47.28125,386.0625 C 47.00155,385.8185 46.449649,385.57599 45.96875,385.5 C 45.48785,385.424 45.091001,385.4785 44.9375,385.3125 C 44.9375,385.3125 44.84375,385.28126 44.84375,385.28125 C 44.86225,385.25425 45.0535,384.79099 45.0625,384.625 C 44.8197,384.636 44.4681,384.7665 44.0625,384.9375 C 43.7586,385.0615 43.427999,385.19976 43,385.34375 C 43,385.34375 43.01265,384.85125 42.96875,384.65625 C 42.65485,384.81925 42.239749,385.24926 41.96875,385.65625 C 41.69775,386.06225 41.5827,386.41701 41.375,386.5 C 41.375,386.5 41.312499,386.56249 41.3125,386.5625 C 41.2945,386.5365 40.93205,386.22224 40.78125,386.15625 C 40.73435,386.28225 40.723951,386.43101 40.71875,386.625 C 40.74245,387.052 40.821651,387.60151 40.71875,388.3125 C 40.71875,388.3125 40.255798,388.07424 40.0625,388.03125 C 40.0758,388.35025 40.247951,388.84226 40.40625,389.28125 C 40.56445,389.72125 40.6885,390.10024 40.5625,390.28125 C 40.5625,390.28125 40.562498,390.37501 40.5625,390.375 C 40.5323,390.363 40.039898,390.29049 39.875,390.3125 C 39.912,390.4185 40.001449,390.54049 40.09375,390.6875 C 40.28855,391.0105 40.557151,391.46624 40.53125,392.15625 C 40.53125,392.15625 40.0753,392.01601 39.875,392 C 39.9395,392.265 40.139401,392.67576 40.25,393.09375 C 40.3606,393.51075 40.363801,393.91326 40.1875,394.03125 C 40.1875,394.03125 40.156252,394.125 40.15625,394.125 C 40.13275,394.103 39.690149,393.8535 39.53125,393.8125 C 39.53405,393.9065 39.56855,394.0295 39.59375,394.1875 C 39.63735,394.3415 39.65475,394.56626 39.59375,394.78125 C 39.53275,394.99525 39.3891,395.22724 39.125,395.40625 C 39.125,395.40625 38.954052,394.94226 38.84375,394.78125 C 38.72945,394.94825 38.549001,395.29049 38.25,395.5625 C 37.9509,395.8345 37.5629,396.00125 37.375,395.90625 C 37.3649,395.90025 37.35265,395.88201 37.34375,395.875 C 37.34375,395.875 37.281248,395.87499 37.28125,395.875 C 37.29355,395.846 37.358349,395.3525 37.34375,395.1875 C 37.21715,395.2415 37.031702,395.40101 36.75,395.5 C 36.4682,395.599 36.063351,395.64325 35.65625,395.40625 C 35.65625,395.40625 35.99435,395.07526 36.09375,394.90625 C 35.94045,394.88625 35.7,394.88051 35.4375,394.8125 C 35.175,394.7455 34.916999,394.59226 34.75,394.40625 C 34.6122,394.25525 34.529801,394.11599 34.5625,394 C 34.5625,394 34.531249,393.90626 34.53125,393.90625 C 34.56305,393.90725 35.040599,393.82201 35.1875,393.75 C 35.0874,393.642 34.892499,393.51224 34.6875,393.28125 C 34.4826,393.05025 34.265951,392.68649 34.21875,392.1875 C 34.21875,392.1875 34.737601,392.29326 34.9375,392.28125 C 34.7996,391.92025 34.3292,391.20049 34.1875,390.6875 C 34.1346,390.4905 34.118702,390.31974 34.1875,390.21875 C 34.1875,390.21875 34.187501,390.15626 34.1875,390.15625 C 34.2178,390.16825 34.709701,390.21251 34.875,390.1875 C 34.8166,390.0175 34.667702,389.79901 34.5,389.5 C 34.3324,389.201 34.1604,388.84876 34.0625,388.34375 C 34.0625,388.34375 34.5523,388.398 34.75,388.375 C 34.6603,388.161 34.473299,387.87175 34.25,387.59375 C 34.0268,387.31575 33.769151,387.05375 33.59375,386.84375 C 33.45975,386.68575 33.381601,386.5565 33.375,386.4375 C 33.375,386.4375 33.3125,386.375 33.3125,386.375 C 33.3432,386.367 33.7649,386.15126 33.875,386.03125 C 33.6981,385.89525 33.414902,385.78049 33.0625,385.6875 C 32.71,385.5935 32.318499,385.522 31.8125,385.375 C 31.8125,385.375 32.1137,384.96626 32.1875,384.78125 C 31.8116,384.72825 31.166,384.84226 30.6875,385.03125 C 30.2768,385.19025 29.97765,385.38149 29.78125,385.3125 C 29.78125,385.3125 29.687501,385.34374 29.6875,385.34375 C 29.6914,385.31175 29.6323,384.80725 29.5625,384.65625 C 29.3799,384.76625 29.19845,384.99526 28.96875,385.28125 C 28.73915,385.56725 28.4535,385.90751 28.125,386.3125 C 28.125,386.3125 27.885999,385.85676 27.75,385.71875 C 27.6121,385.94075 27.50865,386.30749 27.46875,386.6875 C 27.44355,387.3325 27.54445,387.95624 27.34375,388.15625 C 27.34375,388.15625 27.343751,388.21877 27.34375,388.21875 C 27.31655,388.20175 26.8529,388.0675 26.6875,388.0625 C 26.7083,388.2545 26.8171,388.48949 26.9375,388.8125 C 27.058,389.1355 27.1804,389.51924 27.1875,390.03125 C 27.1875,390.03125 26.700899,389.885 26.5,389.875 C 26.5528,390.09 26.697749,390.38449 26.84375,390.6875 C 27.08535,391.2115 27.327249,391.78199 27.15625,392 C 27.15625,392 27.15625,392.09376 27.15625,392.09375 C 27.12675,392.07975 26.63505,391.98801 26.46875,392 C 26.51955,392.158 26.692199,392.36224 26.8125,392.65625 C 26.9327,392.95125 27.009201,393.34751 26.875,393.8125 C 26.875,393.8125 26.46955,393.55901 26.28125,393.5 C 26.28835,393.682 26.33585,393.94301 26.34375,394.25 C 26.37225,394.493 26.311749,394.76576 26.21875,394.96875 C 26.12585,395.17275 26.0049,395.31449 25.875,395.3125 C 25.875,395.3125 25.812501,395.34375 25.8125,395.34375 C 25.8052,395.31275 25.57455,394.90426 25.46875,394.78125 C 25.40515,394.89325 25.3606,395.10875 25.1875,395.34375 C 25.0145,395.57975 24.70035,395.832 24.21875,395.875 C 24.21875,395.875 24.298051,395.3865 24.28125,395.1875 C 24.20585,395.2245 24.109999,395.28174 24,395.34375 C 23.7434,395.48275 23.3868,395.62551 23.0625,395.6875 C 22.7383,395.7485 22.471699,395.73576 22.375,395.59375 C 22.375,395.59375 22.281249,395.56249 22.28125,395.5625 C 22.30255,395.5385 22.5232,395.09549 22.5625,394.9375 C 22.414,394.9415 22.21255,395.02024 21.90625,395.03125 C 21.59995,395.04125 21.198901,394.98749 20.8125,394.6875 C 20.8125,394.6875 21.21855,394.40401 21.34375,394.25 C 21.11065,394.164 20.6428,394.07926 20.25,393.90625 C 19.8572,393.73425 19.5474,393.462 19.5625,393.25 C 19.5625,393.25 19.53125,393.1875 19.53125,393.1875 C 19.56265,393.1825 19.995699,392.976 20.125,392.875 C 20.003,392.786 19.77915,392.71124 19.53125,392.53125 C 19.28345,392.35125 19.01365,392.06475 18.90625,391.59375 C 18.90625,391.59375 19.40125,391.63375 19.59375,391.59375 C 19.47315,391.39475 19.20815,391.05749 19.03125,390.6875 C 18.84295,390.2595 18.6768,389.8685 18.8125,389.6875 C 18.8125,389.6875 18.812499,389.59376 18.8125,389.59375 C 18.8423,389.60675 19.333699,389.67226 19.5,389.65625 C 19.4467,389.49625 19.3173,389.29401 19.1875,389 C 19.0576,388.706 18.954399,388.31777 19.0625,387.84375 C 19.0625,387.84375 19.496,388.07599 19.6875,388.125 C 19.6652,387.881 19.528249,387.47549 19.53125,387.0625 C 19.50875,386.6525 19.69785,386.26901 19.90625,386.25 C 19.90625,386.25 19.96875,386.1875 19.96875,386.1875 C 19.97915,386.2175 20.2581,386.64001 20.375,386.75 C 20.424,386.635 20.445449,386.40324 20.59375,386.15625 C 20.74215,385.90825 21.023001,385.61426 21.5,385.53125 C 21.5,385.53125 21.466699,386.05299 21.5,386.25 C 21.6213,386.179 21.787799,386.02726 22,385.90625 C 22.3135,385.77125 22.6257,385.60475 22.875,385.46875 C 23.1243,385.33275 23.32385,385.23725 23.46875,385.28125 C 23.46875,385.28125 23.53125,385.24999 23.53125,385.25 C 23.52885,385.282 23.6139,385.76024 23.6875,385.90625 C 23.8509,385.79525 24.0264,385.5805 24.25,385.3125 C 24.4736,385.0435 24.750051,384.72324 25.15625,384.40625 C 25.15625,384.40625 25.328599,384.8975 25.4375,385.0625 C 25.6531,384.8195 25.859449,384.34726 26.03125,383.90625 C 26.20305,383.46525 26.32575,383.05076 26.53125,382.96875 C 26.53125,382.96875 26.59375,382.90624 26.59375,382.90625 C 26.61195,382.93325 26.9753,383.27374 27.125,383.34375 C 27.1819,383.15575 27.1783,382.85001 27.1875,382.5 C 27.1968,382.15 27.226551,381.749 27.34375,381.25 C 27.34375,381.25 27.7505,381.53276 27.9375,381.59375 C 27.9582,381.19675 27.776151,380.503 27.59375,380 C 27.47185,379.672 27.3636,379.40699 27.4375,379.25 C 27.4375,379.25 27.437499,379.1875 27.4375,379.1875 C 27.4688,379.1945 27.937949,379.177 28.09375,379.125 C 28.00585,378.946 27.798201,378.72774 27.5625,378.46875 C 27.3267,378.20975 27.0748,377.91076 26.8125,377.46875 C 26.8125,377.46875 27.322701,377.36726 27.5,377.28125 C 27.2868,377.03525 26.822151,376.75626 26.40625,376.53125 C 25.99035,376.30625 25.617701,376.12024 25.5625,375.90625 C 25.5625,375.90625 25.5,375.87499 25.5,375.875 C 25.5287,375.86 25.9121,375.51501 26,375.375 C 25.8206,375.295 25.5335,375.27175 25.1875,375.21875 C 24.8414,375.16475 24.4162,375.09124 23.9375,374.90625 C 23.9375,374.90625 24.288999,374.52074 24.375,374.34375 z" xlink:href="#path3851"/>
        <path d="M 53.9814,388.566 C 54.1823,388.306 53.8599,387.549 53.7386,386.863 C 53.7386,386.863 53.7386,386.863 53.7386,386.863 C 53.6918,386.596 53.6973,386.333 53.745,386.141 C 53.9267,386.233 54.316,386.585 54.316,386.585 C 54.5035,386.071 54.6808,385.675 54.9148,385.359 C 55.1489,385.042 55.445,384.802 55.7276,384.701 C 55.7716,384.857 55.7037,385.353 55.6925,385.383 C 55.6925,385.383 55.7803,385.377 55.7803,385.377 C 55.7803,385.378 55.7803,386.369 55.7803,386.369 C 55.7803,386.369 55.76,386.353 55.76,386.353 C 55.76,386.353 55.7309,386.328 55.6849,386.335 C 55.6389,386.341 55.5755,386.387 55.5116,386.475 C 55.3836,386.651 55.2606,386.96 55.2606,386.96 C 55.2606,386.96 55.2186,387.059 55.1637,387.2 C 55.1034,387.443 55.0439,387.792 55.0129,388.087 C 54.9819,388.383 54.9719,388.622 54.9719,388.622 M 53.9033,392.414 C 54.1283,392.148 53.6839,391.297 53.4235,390.696 C 53.3564,390.55 53.3004,390.416 53.2692,390.307 C 53.4687,390.311 53.9556,390.453 53.9556,390.453 C 53.924,389.444 53.3919,388.915 53.2965,388.559 C 53.4617,388.544 53.9477,388.631 53.9771,388.645 C 53.9771,388.645 53.9814,388.566 53.9814,388.566 C 53.9824,388.566 54.9719,388.622 54.9719,388.622 C 54.9719,388.622 54.9682,388.696 54.9682,388.696 C 54.9682,388.696 54.9513,389.118 54.9493,389.557 C 54.9472,389.995 54.9493,390.449 54.9493,390.449 C 54.9493,390.449 54.9494,390.545 54.9484,390.696 C 54.9484,390.696 54.9484,390.696 54.9484,390.696 C 54.9533,390.959 54.9576,391.403 54.9435,391.79 C 54.9295,392.177 54.8967,392.502 54.8967,392.502 M 52.315,395.509 C 52.4797,395.533 52.6887,395.334 52.8162,395.058 C 52.9438,394.781 52.9731,394.438 52.932,394.179 C 52.9289,394.033 52.9212,393.907 52.9257,393.809 C 53.109,393.883 53.5082,394.181 53.5082,394.181 C 53.6817,393.729 53.6177,393.334 53.5134,393.039 C 53.409,392.743 53.2617,392.536 53.216,392.38 C 53.3819,392.374 53.8673,392.476 53.8962,392.491 C 53.8962,392.491 53.9033,392.414 53.9033,392.414 C 53.9043,392.414 54.8967,392.502 54.8967,392.502 C 54.8967,392.502 54.888,392.587 54.888,392.587 C 54.888,392.587 54.839,393.077 54.7254,393.571 C 54.6117,394.065 54.4196,394.557 54.4196,394.557 C 54.4196,394.557 54.377,394.669 54.2987,394.84 C 54.2987,394.84 54.2987,394.84 54.2987,394.84 C 54.128,395.157 53.7921,395.606 53.4481,395.906 C 53.1041,396.205 52.7768,396.374 52.7768,396.374 M 48.8504,395.28 C 48.9108,395.477 49.3183,395.578 49.7295,395.524 C 50.1408,395.47 50.5249,395.274 50.7369,395.203 C 50.7309,395.402 50.5873,395.882 50.5873,395.882 C 50.6486,395.884 50.7079,395.882 50.765,395.876 C 50.765,395.876 50.765,395.876 50.765,395.876 C 51.187,395.834 51.4778,395.62 51.6533,395.417 C 51.8288,395.214 51.9007,395.02 51.9768,394.923 C 52.0669,395.059 52.2462,395.511 52.2496,395.543 C 52.2496,395.543 52.315,395.509 52.315,395.509 C 52.3155,395.51 52.7768,396.374 52.7768,396.374 C 52.7768,396.374 52.6907,396.421 52.6907,396.421 C 52.6907,396.421 52.3723,396.593 51.9609,396.714 C 51.5496,396.834 51.0494,396.882 50.765,396.879 C 50.765,396.879 50.765,396.879 50.765,396.879 C 50.6233,396.881 50.5348,396.875 50.5348,396.875 C 50.5348,396.875 49.9185,396.846 49.3435,396.64 C 48.7684,396.435 48.2683,396.058 48.2683,396.058 M 47.5962,391.956 C 47.4792,392.14 47.6371,392.531 47.8751,392.893 C 48.113,393.256 48.4332,393.565 48.583,393.753 C 48.3958,393.815 47.8984,393.846 47.8984,393.846 C 47.9746,394.06 48.0841,394.233 48.207,394.368 C 48.395,394.578 48.6185,394.661 48.8031,394.694 C 48.9877,394.727 49.1376,394.714 49.2347,394.731 C 49.15,394.868 48.8197,395.22 48.7929,395.236 C 48.7929,395.236 48.8504,395.28 48.8504,395.28 C 48.8498,395.281 48.2683,396.058 48.2683,396.058 C 48.2683,396.058 48.1906,395.997 48.1906,395.997 C 48.1906,395.997 48.0277,395.873 47.8273,395.662 C 47.6269,395.452 47.3968,395.148 47.2313,394.84 C 47.2313,394.84 47.2313,394.84 47.2313,394.84 C 47.0602,394.466 46.9638,394.15 46.9638,394.15 C 46.9638,394.15 46.7942,393.609 46.7067,393.07 C 46.6193,392.532 46.596,392.004 46.596,392.004 M 47.3965,388.084 C 47.3118,388.288 47.5053,388.647 47.7236,389.062 C 47.9419,389.476 48.186,389.935 48.2628,390.221 C 48.0622,390.217 47.5722,390.076 47.5722,390.076 C 47.5811,390.309 47.6136,390.514 47.6611,390.696 C 47.8285,391.31 48.1843,391.656 48.2847,391.893 C 48.1202,391.923 47.6235,391.888 47.5927,391.878 C 47.5927,391.878 47.5962,391.956 47.5962,391.956 C 47.5952,391.956 46.596,392.004 46.596,392.004 C 46.596,392.004 46.5918,391.921 46.5918,391.921 C 46.5918,391.921 46.5718,391.217 46.5816,390.696 C 46.5816,390.696 46.5816,390.696 46.5816,390.696 C 46.5753,390.36 46.5712,390.088 46.5712,390.088 C 46.5712,390.088 46.5666,389.607 46.5358,389.153 C 46.5049,388.699 46.4298,388.28 46.4298,388.28 M 44.9334,385.297 C 45.0869,385.463 45.4938,385.438 45.9747,385.514 C 46.4556,385.59 47.0052,385.805 47.2849,386.049 C 47.1239,386.16 46.6499,386.325 46.6499,386.325 C 46.8024,386.499 46.938,386.659 47.0671,386.813 C 47.4957,387.337 47.9068,387.652 48.0559,387.916 C 47.9017,387.974 47.4118,388.012 47.3801,388.006 C 47.3801,388.006 47.3965,388.084 47.3965,388.084 C 47.3955,388.085 46.4298,388.28 46.4298,388.28 C 46.4298,388.28 46.4167,388.214 46.4167,388.214 C 46.4167,388.214 46.2935,387.654 46.0989,387.281 C 46.0989,387.281 46.0989,387.281 46.0989,387.281 C 46.023,387.08 45.9045,386.944 45.9045,386.944 C 45.9045,386.944 45.6935,386.691 45.3846,386.52 C 45.0757,386.349 44.7023,386.265 44.7023,386.265 M 41.3624,386.503 C 41.5701,386.42 41.7055,386.047 41.9765,385.641 C 42.2475,385.234 42.6614,384.814 42.9753,384.651 C 43.0192,384.846 42.9976,385.357 42.9976,385.357 C 43.4256,385.213 43.7703,385.077 44.0742,384.953 C 44.4798,384.782 44.8132,384.633 45.056,384.622 C 45.047,384.788 44.8721,385.252 44.8536,385.279 C 44.8536,385.279 44.9334,385.297 44.9334,385.297 C 44.9332,385.298 44.7023,386.265 44.7023,386.265 C 44.7023,386.265 44.644,386.252 44.644,386.252 C 44.644,386.252 44.3743,386.193 44.0742,386.188 C 43.7003,386.194 43.2875,386.306 43.2875,386.306 C 43.2875,386.306 42.9221,386.41 42.6322,386.599 C 42.3423,386.789 42.1615,387.059 42.1615,387.059 M 40.5746,390.294 C 40.7006,390.113 40.5674,389.723 40.4092,389.283 C 40.2509,388.844 40.0835,388.342 40.0702,388.023 C 40.2635,388.066 40.7114,388.3 40.7114,388.3 C 40.8143,387.589 40.7389,387.063 40.7152,386.636 C 40.7152,386.636 40.7152,386.636 40.7152,386.636 C 40.7204,386.442 40.7413,386.278 40.7882,386.152 C 40.939,386.218 41.2986,386.544 41.3166,386.57 C 41.3166,386.57 41.3624,386.503 41.3624,386.503 C 41.3632,386.504 42.1615,387.059 42.1615,387.059 C 42.1615,387.059 42.135,387.102 42.135,387.102 C 42.135,387.102 42.0914,387.17 42.0495,387.281 C 41.954,387.464 41.8453,387.748 41.7809,388 C 41.7165,388.252 41.6865,388.465 41.6865,388.465 C 41.6865,388.465 41.6244,388.893 41.6007,389.354 C 41.5769,389.814 41.5735,390.3 41.5735,390.3 M 40.1816,394.042 C 40.3579,393.924 40.3514,393.511 40.2408,393.094 C 40.1302,392.676 39.9241,392.25 39.8596,391.985 C 40.0599,392.001 40.5402,392.17 40.5402,392.17 C 40.5661,391.48 40.2894,391.019 40.0946,390.696 C 40.0946,390.696 40.0946,390.696 40.0946,390.696 C 40.0023,390.549 39.923,390.427 39.886,390.321 C 40.0509,390.299 40.5442,390.361 40.5744,390.373 C 40.5744,390.373 40.5746,390.294 40.5746,390.294 C 40.5756,390.294 41.5735,390.3 41.5735,390.3 C 41.5735,390.3 41.5722,390.377 41.5722,390.377 C 41.5722,390.377 41.5704,390.506 41.5668,390.696 C 41.5717,390.955 41.5748,391.334 41.5662,391.656 C 41.5576,391.977 41.5379,392.236 41.5379,392.236 C 41.5379,392.236 41.5038,392.767 41.3996,393.307 C 41.2955,393.846 41.1032,394.386 41.1032,394.386 M 37.3549,395.887 C 37.3638,395.894 37.3733,395.899 37.3834,395.905 C 37.5713,396 37.9599,395.83 38.259,395.558 C 38.558,395.286 38.7441,394.937 38.8584,394.77 C 38.9687,394.931 39.1329,395.394 39.1329,395.394 C 39.397,395.215 39.5435,394.98 39.6045,394.766 C 39.6655,394.551 39.6439,394.357 39.6003,394.203 C 39.5751,394.045 39.54,393.921 39.5372,393.827 C 39.6961,393.868 40.1311,394.09 40.1546,394.112 C 40.1546,394.112 40.1816,394.042 40.1816,394.042 C 40.1826,394.042 41.1032,394.386 41.1032,394.386 C 41.1032,394.386 41.0712,394.472 41.0712,394.472 C 41.0712,394.472 41.0162,394.623 40.9171,394.84 C 40.7507,395.149 40.4642,395.533 40.1872,395.796 C 39.9102,396.059 39.6592,396.215 39.6592,396.215 C 39.6592,396.215 39.2132,396.512 38.6774,396.683 C 38.1415,396.855 37.536,396.881 37.3834,396.879 C 37.3594,396.879 37.3464,396.879 37.3464,396.879 M 34.5654,393.988 C 34.5327,394.104 34.6041,394.257 34.7419,394.408 C 34.9089,394.594 35.1825,394.738 35.445,394.805 C 35.7075,394.873 35.9554,394.871 36.1087,394.891 C 36.0093,395.06 35.6582,395.409 35.6582,395.409 C 36.0653,395.646 36.4726,395.611 36.7544,395.512 C 37.0361,395.413 37.211,395.256 37.3376,395.202 C 37.3522,395.367 37.2924,395.856 37.2801,395.885 C 37.2801,395.885 37.3549,395.887 37.3549,395.887 C 37.3549,395.888 37.3464,396.879 37.3464,396.879 C 37.3464,396.879 37.2495,396.878 37.2495,396.878 C 37.2495,396.878 36.6869,396.865 36.1532,396.703 C 35.6194,396.542 35.14,396.236 35.14,396.236 C 35.14,396.236 34.8952,396.088 34.6153,395.829 C 34.3353,395.57 34.0357,395.186 33.8497,394.84 C 33.8497,394.84 33.8497,394.84 33.8497,394.84 C 33.7137,394.542 33.6401,394.321 33.6401,394.321 M 34.1919,390.234 C 34.1231,390.335 34.1337,390.499 34.1866,390.696 C 34.3283,391.209 34.7876,391.93 34.9255,392.291 C 34.7256,392.303 34.2287,392.2 34.2287,392.2 C 34.2759,392.699 34.4759,393.046 34.6808,393.277 C 34.8858,393.508 35.0948,393.627 35.1949,393.735 C 35.048,393.807 34.5723,393.918 34.5405,393.917 C 34.5405,393.917 34.5654,393.988 34.5654,393.988 C 34.5645,393.988 33.6401,394.321 33.6401,394.321 C 33.6401,394.321 33.6104,394.235 33.6104,394.235 C 33.6104,394.235 33.4474,393.741 33.356,393.248 C 33.2647,392.755 33.2314,392.269 33.2314,392.269 C 33.2314,392.269 33.2113,392.019 33.2018,391.697 C 33.1923,391.376 33.1946,390.987 33.2,390.696 C 33.2,390.696 33.2,390.696 33.2,390.696 C 33.195,390.431 33.1924,390.241 33.1924,390.241 M 33.3681,386.453 C 33.3747,386.572 33.4678,386.696 33.6018,386.854 C 33.7772,387.064 34.0281,387.321 34.2513,387.599 C 34.4746,387.877 34.671,388.169 34.7607,388.383 C 34.563,388.406 34.0606,388.331 34.0606,388.331 C 34.1585,388.836 34.3205,389.213 34.4881,389.512 C 34.6558,389.811 34.8228,390.027 34.8812,390.197 C 34.7159,390.222 34.2217,390.166 34.1914,390.154 C 34.1914,390.154 34.1919,390.234 34.1919,390.234 C 34.1909,390.234 33.1924,390.241 33.1924,390.241 C 33.1924,390.241 33.191,390.164 33.191,390.164 C 33.191,390.164 33.1867,389.723 33.1635,389.303 C 33.1402,388.884 33.0844,388.492 33.0844,388.492 C 33.0844,388.492 33.0567,388.285 32.9942,388.033 C 32.9318,387.78 32.8253,387.488 32.7173,387.281 C 32.7173,387.281 32.7173,387.281 32.7173,387.281 C 32.6581,387.124 32.5838,387.026 32.5838,387.026 M 29.7729,385.312 C 29.9693,385.381 30.2819,385.205 30.6926,385.046 C 31.1711,384.857 31.8041,384.722 32.18,384.775 C 32.1062,384.96 31.7998,385.366 31.7998,385.366 C 32.3058,385.513 32.7074,385.606 33.0599,385.7 C 33.4123,385.793 33.7079,385.889 33.8848,386.025 C 33.7747,386.145 33.3497,386.38 33.319,386.388 C 33.319,386.388 33.3681,386.453 33.3681,386.453 C 33.3673,386.453 32.5838,387.026 32.5838,387.026 C 32.5838,387.026 32.5541,386.985 32.5541,386.985 C 32.5541,386.985 32.3722,386.748 32.1027,386.579 C 31.8332,386.41 31.5017,386.312 31.5017,386.312 C 31.5017,386.312 31.0878,386.194 30.6926,386.188 C 30.3446,386.194 30.0203,386.275 30.0203,386.275 M 27.3584,388.144 C 27.5591,387.944 27.4317,387.341 27.4569,386.696 C 27.4968,386.316 27.6195,385.949 27.7574,385.727 C 27.8934,385.865 28.1374,386.301 28.1374,386.301 C 28.4659,385.896 28.728,385.577 28.9576,385.291 C 29.1873,385.005 29.3832,384.769 29.5658,384.659 C 29.6356,384.81 29.6978,385.302 29.6939,385.334 C 29.6939,385.334 29.7729,385.312 29.7729,385.312 C 29.7731,385.313 30.0203,386.275 30.0203,386.275 C 30.0203,386.275 29.9627,386.29 29.9627,386.29 C 29.9627,386.29 29.627,386.379 29.3488,386.539 C 29.0705,386.7 28.8752,386.929 28.8752,386.929 C 28.8752,386.929 28.7482,387.068 28.668,387.281 C 28.668,387.281 28.668,387.281 28.668,387.281 C 28.5609,387.486 28.4678,387.743 28.411,387.955 C 28.3542,388.167 28.3276,388.331 28.3276,388.331 M 27.1676,392.015 C 27.3386,391.797 27.0892,391.22 26.8476,390.696 C 26.7016,390.393 26.5595,390.094 26.5067,389.879 C 26.7076,389.889 27.195,390.044 27.195,390.044 C 27.1879,389.532 27.068,389.139 26.9475,388.816 C 26.8271,388.493 26.7043,388.24 26.6835,388.048 C 26.8489,388.053 27.3164,388.205 27.3436,388.222 C 27.3436,388.222 27.3584,388.144 27.3584,388.144 C 27.3594,388.144 28.3276,388.331 28.3276,388.331 C 28.3276,388.331 28.3159,388.398 28.3159,388.398 C 28.3159,388.398 28.2543,388.786 28.2278,389.202 C 28.2013,389.619 28.1962,390.058 28.1962,390.058 C 28.1962,390.058 28.1919,390.34 28.1852,390.696 C 28.1852,390.696 28.1852,390.696 28.1852,390.696 C 28.196,391.269 28.1673,392.068 28.1673,392.068 M 25.8717,395.312 C 26.0016,395.314 26.1414,395.177 26.2343,394.973 C 26.3273,394.77 26.3664,394.504 26.3379,394.261 C 26.33,393.954 26.2746,393.676 26.2675,393.494 C 26.4558,393.553 26.8774,393.818 26.8774,393.818 C 27.0116,393.353 26.9235,392.96 26.8033,392.665 C 26.683,392.371 26.5277,392.165 26.4769,392.007 C 26.6432,391.995 27.1338,392.079 27.1633,392.093 C 27.1633,392.093 27.1676,392.015 27.1676,392.015 C 27.1686,392.015 28.1673,392.068 28.1673,392.068 C 28.1673,392.068 28.1621,392.152 28.1621,392.152 C 28.1621,392.152 28.134,392.636 28.0503,393.129 C 27.9667,393.621 27.8138,394.116 27.8138,394.116 C 27.8138,394.116 27.7163,394.444 27.5356,394.84 C 27.5356,394.84 27.5356,394.84 27.5356,394.84 C 27.3531,395.179 27.091,395.515 26.8598,395.743 C 26.6287,395.972 26.4384,396.103 26.4384,396.103 M 22.3614,395.589 C 22.4581,395.731 22.7521,395.758 23.0763,395.697 C 23.4006,395.635 23.7452,395.481 24.0018,395.342 C 24.1118,395.28 24.2048,395.223 24.2802,395.186 C 24.297,395.385 24.2089,395.88 24.2089,395.88 C 24.6905,395.837 25.0077,395.581 25.1807,395.345 C 25.3538,395.11 25.3996,394.891 25.4632,394.779 C 25.569,394.902 25.8046,395.323 25.8119,395.354 C 25.8119,395.354 25.8717,395.312 25.8717,395.312 C 25.8723,395.313 26.4384,396.103 26.4384,396.103 C 26.4384,396.103 26.3584,396.16 26.3584,396.16 C 26.3584,396.16 25.8889,396.483 25.3605,396.662 C 24.832,396.841 24.2701,396.873 24.2701,396.873 C 24.2701,396.873 24.1665,396.881 24.0018,396.879 C 24.0018,396.879 24.0018,396.879 24.0018,396.879 C 23.7003,396.875 23.191,396.826 22.7716,396.731 C 22.3522,396.635 22.0211,396.508 22.0211,396.508 M 19.5588,393.259 C 19.5437,393.471 19.8726,393.727 20.2654,393.899 C 20.6582,394.072 21.1023,394.154 21.3354,394.24 C 21.2102,394.394 20.8042,394.687 20.8042,394.687 C 21.1906,394.987 21.5853,395.055 21.8916,395.045 C 22.1979,395.034 22.4238,394.95 22.5723,394.946 C 22.533,395.104 22.3125,395.538 22.2912,395.562 C 22.2912,395.562 22.3614,395.589 22.3614,395.589 C 22.361,395.589 22.0211,396.508 22.0211,396.508 C 22.0211,396.508 21.9374,396.477 21.9374,396.477 C 21.9374,396.477 21.4568,396.291 21.0153,396.033 C 20.5739,395.775 20.1773,395.451 20.1773,395.451 C 20.1773,395.451 19.7431,395.095 19.3764,394.674 C 19.0098,394.253 18.7181,393.773 18.7181,393.773 M 18.8237,389.672 C 18.688,389.853 18.8308,390.268 19.0191,390.696 C 19.196,391.066 19.4664,391.383 19.587,391.582 C 19.3945,391.622 18.8986,391.595 18.8986,391.595 C 19.006,392.066 19.275,392.36 19.5228,392.54 C 19.7707,392.72 20.0029,392.794 20.1249,392.883 C 19.9956,392.984 19.5512,393.189 19.5198,393.194 C 19.5198,393.194 19.5588,393.259 19.5588,393.259 C 19.5579,393.26 18.7181,393.773 18.7181,393.773 C 18.7181,393.773 18.6725,393.696 18.6725,393.696 C 18.6725,393.696 18.4121,393.254 18.2268,392.775 C 18.0415,392.297 17.9369,391.787 17.9369,391.787 C 17.9369,391.787 17.827,391.26 17.8184,390.696 C 17.809,390.191 17.822,389.64 17.822,389.64 M 19.9175,386.249 C 19.7091,386.268 19.5203,386.661 19.5428,387.071 C 19.5398,387.484 19.6529,387.896 19.6752,388.14 C 19.4837,388.091 19.0477,387.847 19.0477,387.847 C 18.9396,388.321 19.0427,388.713 19.1726,389.007 C 19.3024,389.301 19.462,389.506 19.5153,389.666 C 19.349,389.682 18.8562,389.607 18.8264,389.594 C 18.8264,389.594 18.8237,389.672 18.8237,389.672 C 18.8227,389.672 17.822,389.64 17.822,389.64 C 17.822,389.64 17.825,389.556 17.825,389.556 C 17.825,389.556 17.8405,389.077 17.9047,388.587 C 17.9689,388.097 18.0955,387.601 18.0955,387.601 C 18.0955,387.601 18.2281,387.077 18.4681,386.552 C 18.7874,385.958 19.2747,385.525 19.2747,385.525 M 23.4627,385.28 C 23.3178,385.236 23.1175,385.33 22.8682,385.466 C 22.6189,385.602 22.3153,385.778 22.0018,385.913 C 21.7896,386.034 21.6203,386.168 21.499,386.239 C 21.4657,386.042 21.5122,385.541 21.5122,385.541 C 21.0352,385.624 20.743,385.904 20.5946,386.152 C 20.4463,386.399 20.4254,386.62 20.3764,386.735 C 20.2595,386.625 19.9826,386.232 19.9722,386.202 C 19.9722,386.202 19.9175,386.249 19.9175,386.249 C 19.9168,386.249 19.2747,385.525 19.2747,385.525 C 19.2747,385.525 19.3494,385.46 19.3494,385.46 C 19.3494,385.46 19.7888,385.09 20.2999,384.863 C 20.811,384.637 21.3683,384.555 21.3683,384.555 C 21.3683,384.555 21.639,384.509 22.0018,384.512 C 22.0018,384.512 22.0018,384.512 22.0018,384.512 C 22.2399,384.518 22.5361,384.491 22.7698,384.445 C 23.0036,384.399 23.1751,384.343 23.1751,384.343 M 26.542,382.981 C 26.3365,383.063 26.2174,383.45 26.0456,383.891 C 25.8738,384.332 25.6381,384.822 25.4225,385.065 C 25.3136,384.9 25.1554,384.419 25.1554,384.419 C 24.7492,384.736 24.4757,385.037 24.2521,385.306 C 24.0285,385.574 23.8577,385.804 23.6943,385.915 C 23.6207,385.769 23.5361,385.288 23.5385,385.256 C 23.5385,385.256 23.4627,385.28 23.4627,385.28 C 23.4624,385.279 23.1751,384.343 23.1751,384.343 C 23.1751,384.343 23.2369,384.323 23.2369,384.323 C 23.2369,384.323 23.5919,384.207 23.9262,384.031 C 24.2605,383.855 24.5684,383.625 24.5684,383.625 C 24.5684,383.625 24.9056,383.374 25.1973,383.072 C 25.489,382.77 25.7279,382.424 25.7279,382.424 M 27.4424,379.264 C 27.3685,379.421 27.4633,379.677 27.5852,380.005 C 27.5852,380.005 27.5852,380.005 27.5852,380.005 C 27.7676,380.508 27.9643,381.197 27.9436,381.594 C 27.7566,381.533 27.3357,381.258 27.3357,381.258 C 27.2185,381.757 27.1872,382.162 27.1779,382.512 C 27.1687,382.862 27.1796,383.149 27.1227,383.337 C 26.973,383.267 26.6047,382.942 26.5865,382.915 C 26.5865,382.915 26.542,382.981 26.542,382.981 C 26.5411,382.981 25.7279,382.424 25.7279,382.424 C 25.7279,382.424 25.7652,382.37 25.7652,382.37 C 25.7652,382.37 25.9789,382.052 26.1359,381.71 C 26.293,381.369 26.3878,381.009 26.3878,381.009 C 26.3878,381.009 26.5193,380.463 26.5092,380.005 C 26.5092,380.005 26.5092,380.005 26.5092,380.005 C 26.5163,379.684 26.4719,379.413 26.4719,379.413 M 25.5626,375.92 C 25.6178,376.134 25.9886,376.3 26.4045,376.525 C 26.8204,376.75 27.2764,377.045 27.4896,377.291 C 27.3123,377.377 26.8172,377.473 26.8172,377.473 C 27.0795,377.915 27.341,378.225 27.5768,378.484 C 27.8125,378.743 28.0179,378.946 28.1058,379.125 C 27.95,379.177 27.4608,379.192 27.4295,379.185 C 27.4295,379.185 27.4424,379.264 27.4424,379.264 C 27.4414,379.264 26.4719,379.413 26.4719,379.413 C 26.4719,379.413 26.4621,379.35 26.4621,379.35 C 26.4621,379.35 26.401,378.986 26.2737,378.635 C 26.1464,378.284 25.9585,377.953 25.9585,377.953 C 25.9585,377.953 25.7525,377.591 25.488,377.266 C 25.2235,376.941 24.9077,376.661 24.9077,376.661 M 22.0018,374.506 C 22.1871,374.631 22.5747,374.514 23.0397,374.426 C 23.5047,374.339 24.0488,374.29 24.3693,374.35 C 24.2833,374.527 23.9529,374.907 23.9529,374.907 C 24.4316,375.092 24.8305,375.175 25.1766,375.229 C 25.5226,375.282 25.8087,375.307 25.9881,375.387 C 25.9002,375.527 25.531,375.853 25.5023,375.868 C 25.5023,375.868 25.5626,375.92 25.5626,375.92 C 25.5619,375.921 24.9077,376.661 24.9077,376.661 C 24.9077,376.661 24.8574,376.617 24.8574,376.617 C 24.8574,376.617 24.5659,376.364 24.244,376.162 C 23.922,375.96 23.5753,375.813 23.5753,375.813 C 23.5753,375.813 23.1958,375.652 22.8006,375.571 C 22.4053,375.491 22.0018,375.498 22.0018,375.498" style="font-size:10px;font-style:normal;font-variant:normal;font-weight:normal;font-stretch:normal;text-align:center;line-height:100%;writing-mode:lr-tb;text-anchor:middle;fill:#000000;fill-opacity:1;stroke:none;stroke-width:1;stroke-linecap:round;stroke-linejoin:round;stroke-miterlimit:4;stroke-dasharray:none;stroke-opacity:1;font-family:Fortune Letters;-inkscape-font-specification:Fortune Letters" id="path3851"/>
        <path style="font-size:10px;font-style:normal;font-variant:normal;font-weight:normal;font-stretch:normal;text-align:center;line-height:100%;writing-mode:lr-tb;text-anchor:middle;fill:#4e9a06;fill-opacity:1;stroke:#ffffff;stroke-linecap:round;stroke-linejoin:round;stroke-opacity:1;font-family:Fortune Letters;-inkscape-font-specification:Fortune Letters" id="path3972" d="M 22.21875,373.46875 C 22.21875,373.46875 22.53125,373.78124 22.53125,373.78125 C 27.533659,373.6982 29.547708,374.97756 32.5625,376 C 29.818536,374.80332 27.55999,373.44724 22.21875,373.46875 z M 16.5,373.59375 C 16.674635,374.01884 16.796232,374.81163 16.75,375.28125 C 18.048528,375.26868 19.314493,375.33215 20.46875,375.78125 C 21.369073,376.33159 21.804989,376.03712 22.53125,375.34375 L 22.71875,374.875 L 22.53125,374.375 L 21.78125,373.625 L 20.5,373.90625 C 19.669056,374.08774 19.338823,374.18168 19.25,374.3125 C 18.256439,374.59731 17.452966,374.07409 16.5,373.59375 z M 21,374.21875 C 21,374.21875 20.5,374.625 20.5,374.625 C 20.339053,374.53555 20.011477,374.51339 19.625,374.4375 C 19.708431,374.35407 20.938826,374.15757 21,374.21875 z" xlink:href="#path3797"/>
        <path d="M 22.521452,374.36408 L 22.708952,374.85956 L 22.521452,375.35504 C 21.795191,376.04841 21.359103,376.33792 20.45878,375.78758 C 19.304523,375.33847 18.048925,375.26679 16.750397,375.27936 C 16.796629,374.80974 16.671757,374.01734 16.497122,373.59225 C 17.450088,374.07259 18.26417,374.61064 19.257731,374.32583 C 19.346553,374.19502 19.677413,374.08268 20.508357,373.90119 L 21.773821,373.61643 L 22.521452,374.36408 z M 20.997918,374.22282 C 20.936743,374.16163 19.717592,374.35009 19.634161,374.43352 C 20.020638,374.50942 20.327548,374.52002 20.488495,374.60947 C 20.488495,374.60947 20.997918,374.22282 20.997918,374.22282 z M 22.207346,373.45927 C 27.548586,373.43775 29.820799,374.81465 32.564763,376.01133 C 29.54997,374.98888 27.533777,373.68302 22.531368,373.76607 C 22.531368,373.76607 22.207346,373.45927 22.207346,373.45927 z" style="font-size:10px;font-style:normal;font-variant:normal;font-weight:normal;font-stretch:normal;text-align:center;line-height:100%;writing-mode:lr-tb;text-anchor:middle;fill:#000000;fill-opacity:1;font-family:Fortune Letters;-inkscape-font-specification:Fortune Letters" id="path3797"/>
      </g>
      <path style="font-size:10px;font-style:normal;font-variant:normal;font-weight:normal;font-stretch:normal;text-align:center;line-height:100%;writing-mode:lr-tb;text-anchor:middle;fill:#ffffff;fill-opacity:1;fill-rule:evenodd;stroke:#000000;stroke-width:1px;stroke-linecap:round;stroke-linejoin:round;stroke-opacity:1;font-family:Fortune Letters;-inkscape-font-specification:Fortune Letters" d="M 31.98625,388.68995 C 34.512356,388.40959 37.328854,390.20687 38.482147,394.51102 C 34.812373,390.84125 32.614293,391.90099 32.001335,393.87818" id="path2990"/>
      <path id="path3767" d="M 44.61125,388.68995 C 47.137356,388.40959 49.953854,390.20687 51.107147,394.51102 C 47.437373,390.84125 45.239293,391.90099 44.626335,393.87818" style="font-size:10px;font-style:normal;font-variant:normal;font-weight:normal;font-stretch:normal;text-align:center;line-height:100%;writing-mode:lr-tb;text-anchor:middle;fill:#ffffff;fill-opacity:1;fill-rule:evenodd;stroke:#000000;stroke-width:1px;stroke-linecap:round;stroke-linejoin:round;stroke-opacity:1;font-family:Fortune Letters;-inkscape-font-specification:Fortune Letters"/>
      <rect style="font-size:10px;font-style:normal;font-variant:normal;font-weight:normal;font-stretch:normal;text-align:center;line-height:100%;writing-mode:lr-tb;text-anchor:middle;fill:none;fill-opacity:1;fill-rule:nonzero;stroke:#000000;stroke-width:1;stroke-linecap:round;stroke-linejoin:round;stroke-miterlimit:4;stroke-dasharray:none;stroke-opacity:1;font-family:Fortune Letters;-inkscape-font-specification:Fortune Letters" id="rect12258" width="45.208172" height="63.291439" x="10.888397" y="335.45676" ry="2.0803924"/>
      <g transform="matrix(0.473414,0,0,0.473414,28.88526,179.27637)" style="font-size:21.12316132px;font-style:normal;font-variant:normal;font-weight:normal;font-stretch:normal;text-align:center;line-height:100%;writing-mode:lr-tb;text-anchor:middle;stroke:#000000;stroke-width:0.5;stroke-linecap:round;stroke-linejoin:round;stroke-miterlimit:4;stroke-dasharray:none;stroke-opacity:1;font-family:Fortune Letters;-inkscape-font-specification:Fortune Letters" id="g3957">
        <path id="path3959" style="font-size:21.12316132px;font-style:normal;font-variant:normal;font-weight:normal;font-stretch:normal;text-align:center;line-height:100%;writing-mode:lr-tb;text-anchor:middle;fill:#ffffff;fill-opacity:1;fill-rule:evenodd;stroke:#000000;stroke-width:0.5;stroke-linecap:round;stroke-linejoin:round;stroke-miterlimit:4;stroke-dasharray:none;stroke-opacity:1;font-family:Fortune Letters;-inkscape-font-specification:Fortune Letters" d="M -20.932982,434.70083 C -17.821171,434.40573 -16.14132,432.80043 -13.478162,427.71261 C -13.478162,427.71261 -17.000621,434.84478 -20.549773,434.32879 L -20.932982,434.70083 z M -12.178855,423.28352 C -13.055171,425.64082 -14.786483,427.36303 -16.081685,428.64329 C -16.729286,429.28343 -17.29912,429.89846 -17.630139,430.64692 C -17.961161,431.39539 -18.046049,432.27401 -17.738039,433.41228 C -16.73195,433.52979 -15.927292,433.26042 -14.766175,432.44476 C -13.605058,431.6291 -12.014719,428.67217 -12.183749,423.28336 L -12.178855,423.28352 z"/>
      </g>
      <g style="font-size:22.85176849px;font-style:normal;font-variant:normal;font-weight:normal;font-stretch:normal;text-align:center;line-height:100%;writing-mode:lr-tb;text-anchor:middle;font-family:Fortune Letters;-inkscape-font-specification:Fortune Letters" id="g4163" transform="matrix(0.4376029,0,0,0.4376029,82.226502,202.02491)">
        <path id="path4165" style="font-size:22.85176849px;font-style:normal;font-variant:normal;font-weight:normal;font-stretch:normal;text-align:center;line-height:100%;writing-mode:lr-tb;text-anchor:middle;fill:#ffffff;fill-opacity:1;stroke:#000000;stroke-width:0.82603854;stroke-linecap:round;stroke-linejoin:round;stroke-miterlimit:4;stroke-dasharray:none;stroke-opacity:1;font-family:Fortune Letters;-inkscape-font-specification:Fortune Letters" d="M -85.361842,328.44303 C -82.667988,327.2488 -79.191565,327.24881 -76.49771,328.44303 C -77.975137,330.99259 -80.787622,333.03598 -83.668945,333.65323 C -83.972276,330.7222 -82.898002,327.41592 -80.92978,325.22295 C -78.961559,327.41592 -80.929782,325.22295 -80.929782,325.22295 C -78.961559,327.41592 -77.887286,330.7222 -78.190611,333.65323 C -81.071931,333.03598 -78.190609,333.65323 -78.190609,333.65323 C -81.071931,333.03598 -83.884416,330.99259 -85.361842,328.44303 z"/>
      </g>
      <g style="font-size:22.85176849px;font-style:normal;font-variant:normal;font-weight:normal;font-stretch:normal;text-align:center;line-height:100%;writing-mode:lr-tb;text-anchor:middle;font-family:Fortune Letters;-inkscape-font-specification:Fortune Letters" transform="matrix(0.4376029,0,0,0.4376029,84.226502,212.02491)" id="g4181">
        <path d="M -85.361842,328.44303 C -82.667988,327.2488 -79.191565,327.24881 -76.49771,328.44303 C -77.975137,330.99259 -80.787622,333.03598 -83.668945,333.65323 C -83.972276,330.7222 -82.898002,327.41592 -80.92978,325.22295 C -78.961559,327.41592 -80.929782,325.22295 -80.929782,325.22295 C -78.961559,327.41592 -77.887286,330.7222 -78.190611,333.65323 C -81.071931,333.03598 -78.190609,333.65323 -78.190609,333.65323 C -81.071931,333.03598 -83.884416,330.99259 -85.361842,328.44303 z" style="font-size:22.85176849px;font-style:normal;font-variant:normal;font-weight:normal;font-stretch:normal;text-align:center;line-height:100%;writing-mode:lr-tb;text-anchor:middle;fill:#ffffff;fill-opacity:1;stroke:#000000;stroke-width:0.82603854;stroke-linecap:round;stroke-linejoin:round;stroke-miterlimit:4;stroke-dasharray:none;stroke-opacity:1;font-family:Fortune Letters;-inkscape-font-specification:Fortune Letters" id="path4183"/>
      </g>
    </g>
  </g>
</svg>